<svg id="visual" viewBox="0 0 1920 1080" width="1920" height="1080" xmlns="http://www.w3.org/2000/svg" xmlns:xlink="http://www.w3.org/1999/xlink" version="1.1"><rect x="0" y="0" width="1920" height="1080" fill="#002233"></rect><path d="M0 604L32 606.8C64 609.7 128 615.3 192 649.5C256 683.7 320 746.3 384 761.5C448 776.7 512 744.3 576 739.2C640 734 704 756 768 733C832 710 896 642 960 616.5C1024 591 1088 608 1152 617.3C1216 626.7 1280 628.3 1344 618.2C1408 608 1472 586 1536 580.2C1600 574.3 1664 584.7 1728 626.8C1792 669 1856 743 1888 780L1920 817L1920 1081L1888 1081C1856 1081 1792 1081 1728 1081C1664 1081 1600 1081 1536 1081C1472 1081 1408 1081 1344 1081C1280 1081 1216 1081 1152 1081C1088 1081 1024 1081 960 1081C896 1081 832 1081 768 1081C704 1081 640 1081 576 1081C512 1081 448 1081 384 1081C320 1081 256 1081 192 1081C128 1081 64 1081 32 1081L0 1081Z" fill="#0066FF" stroke-linecap="round" stroke-linejoin="miter"></path></svg>